<?xml version="1.0" standalone="no"?><!DOCTYPE svg PUBLIC "-//W3C//DTD SVG 1.1//EN" "http://www.w3.org/Graphics/SVG/1.1/DTD/svg11.dtd"><svg t="1587139412898" class="icon" viewBox="0 0 1024 1024" version="1.1" xmlns="http://www.w3.org/2000/svg" p-id="3651" xmlns:xlink="http://www.w3.org/1999/xlink" width="200" height="200"><defs><style type="text/css"></style></defs><path d="M1003.508019 355.511334a304.312582 304.312582 0 0 0-278.713206-75.838151 515.827427 515.827427 0 0 0 112.637255-231.994345 43.838931 43.838931 0 0 0-6.719837-31.99922 30.079267 30.079267 0 0 0-25.279383-15.679618c-153.596256 7.999805-236.794228 112.957247-280.953152 209.914883C448.00156 70.398284 277.445717 35.519134 192.0078 27.199337a43.838931 43.838931 0 0 0-31.99922 10.559743 30.079267 30.079267 0 0 0-10.239751 26.23936 308.472481 308.472481 0 0 0 191.99532 235.834252C186.567932 297.272754 70.730756 423.029689 20.811973 489.908058a43.838931 43.838931 0 0 0-7.359821 31.999221 30.079267 30.079267 0 0 0 16.639595 23.999415A298.232731 298.232731 0 0 0 288.00546 529.267099a584.62575 584.62575 0 0 0-55.998635 161.916053 43.838931 43.838931 0 0 0 7.679813 31.99922 30.079267 30.079267 0 0 0 25.599376 14.399649 302.072637 302.072637 0 0 0 239.034173-145.276458c2.87993 11.839711 4.799883 24.319407 7.359821 36.799103s3.519914 34.559158 5.759859 51.838736 0 35.519134 0 53.118705 0 34.87915-3.519914 51.838737-3.839906 31.99922-6.399844 48.638814-5.75986 29.759275-8.319797 43.198947c-1.919953 8.319797-3.839906 15.679618-5.75986 23.039439a1700.758544 1700.758544 0 0 0-271.353385 80.958026A21.75947 21.75947 0 0 0 230.406864 1023.975041h684.783308a21.75947 21.75947 0 0 0 18.239556-34.239166c-55.358651-76.158144-147.516404-104.957442-249.913909-107.517379 0-8.319797 1.919953-17.279579 2.559938-26.23936 0-18.87954 2.87993-39.039048 2.87993-60.158534v-63.99844c0-21.439477-4.159899-44.798908-6.399844-67.198362s-7.039828-45.1189-13.439673-66.87837a535.346951 535.346951 0 0 0-19.839516-63.99844 423.989665 423.989665 0 0 0-25.279384-57.918588l-5.439867-10.239751c144.956467 63.99844 301.752645-9.599766 373.750889-53.118705a43.838931 43.838931 0 0 0 18.87954-27.519329 30.079267 30.079267 0 0 0-7.679813-29.439283z" fill="#231F20" p-id="3652"></path></svg>