<?xml version="1.0" standalone="no"?><!DOCTYPE svg PUBLIC "-//W3C//DTD SVG 1.1//EN" "http://www.w3.org/Graphics/SVG/1.1/DTD/svg11.dtd"><svg t="1594976439667" class="icon" viewBox="0 0 1024 1024" version="1.1" xmlns="http://www.w3.org/2000/svg" p-id="2398" xmlns:xlink="http://www.w3.org/1999/xlink" width="200" height="200"><defs><style type="text/css"></style></defs><path d="M512 1024a512 512 0 1 1 512-512 512 512 0 0 1-512 512z m0-992a480 480 0 1 0 480 480A480 480 0 0 0 512 32z m224.256 512h-32v192a32 32 0 0 1-32 32h-320a32 32 0 0 1-32-32V544h-32a32 32 0 0 1-32-32h-0.608a14.704 14.704 0 0 1 1.6-4.592 31.184 31.184 0 0 1 24-25.968L504 258.96a9.6 9.6 0 0 1 15.44 0l222.688 222.224A31.552 31.552 0 0 1 768.256 512a32 32 0 0 1-32 32zM512 294.496L295.008 512H352v224h320V512h57.008zM320.128 576h0.128-0.128z" p-id="2399" fill="#ffffff"></path></svg>